<svg xmlns="http://www.w3.org/2000/svg" version="1.1" width="600px" height="600px" xlink="http://www.w3.org/1999/xlink" style="overflow:hidden!important;"><g id="svga-group-wrapper" transform="scale(3 3)"><g id="svga-group-backs-single"><path id="SvgjsPath3592" d="M225 225H-25V-25h250V225z" fill="#9de0ad" stroke-width="none" opacity="1" stroke="none"></path><path id="SvgjsPath3593" d="M103-37.266L99.131 71.999 96.536-37.598 103-37.266zM73.203-36.265L91.025 71.904 79.65-36.835 73.203-36.265zM66.869-16.598l24.577 89.921L68.869-17.931 66.869-16.598zM26.203-29.931L87.817 74.773 32.243-32.257 26.203-29.931zM23.545-16.454l60.278 91.568L25.536-20.265 23.545-16.454zM-11.865-28.757l57.2 61.532L-6.7-32.658 -11.865-28.757zM-15.464-0.265l94.073 82.174 -89.74-88.174L-15.464-0.265zM-30.131 2.069l85.667 64.667 -85.11-67.506L-30.131 2.069zM-25.19 42.794l99.642 45.712 -96.509-51.375L-25.19 42.794zM-44.131 43.402L56.536 85.069 -44.797 39.735 -44.131 43.402zM-54.775 75.518L53.607 91.994l-109.599-19.45L-54.775 75.518zM-44.102 97.566l109.62 1.232 -109.063-7.68L-44.102 97.566zM-58.131 52.069l89 27.333 -89.667-31L-58.131 52.069zM79.65 236.833l11.375-108.739L73.203 236.263 79.65 236.833zM68.869 217.929l22.577-91.254 -24.577 89.921L68.869 217.929zM30.826 240.293l47.61-91.392 -53.65 89.065L30.826 240.293zM25.536 220.263l58.287-95.379 -60.278 91.568L25.536 220.263zM-11.212 239.563l67.27-86.188 -72.435 82.287L-11.212 239.563zM-11.131 206.263l89.74-88.174 -94.073 82.174L-11.131 206.263zM-29.574 200.769l85.11-67.506 -85.667 64.666L-29.574 200.769zM-22.058 162.867l96.509-51.376 -99.642 45.713L-22.058 162.867zM-44.797 160.263l101.333-45.334 -100.667 41.667L-44.797 160.263zM-55.992 127.454l109.599-19.449L-54.775 124.48 -55.992 127.454zM-58.797 151.597l89.667-31.001 -89 27.333L-58.797 151.597zM120.438-43.631L106.913 64.863l14.599-89.479L120.438-43.631zM141.813-31.87L113.32 73.685l34.767-103.968L141.813-31.87zM149.456-11.494L112.68 75.019 151.219-9.86 149.456-11.494zM187.892-19.824l-71.859 96.851 77.454-93.596L187.892-19.824zM192.61-6.919l-72.688 84.917 74.049-80.838L192.61-6.919zM226.479-19.459l-61.838 61.764 66.318-57.093L226.479-19.459zM226.59 12.723L123.991 85.534l105.924-66.199L226.59 12.723zM243.926 21.075l-94.745 53.14 94.846-50.248L243.926 21.075zM230.489 57.303L127.048 92.708l105.635-29.315L230.489 57.303zM252.527 63.484L145.283 92.157l106.004-25.158L252.527 63.484zM255.805 96.376l-109.623-0.937 112.19 2.214L255.805 96.376zM239.29 109.779l-108.899-9.73 108.426 16.185L239.29 109.779zM241.298 126.083l-67.52-9.087 66.28 12.603L241.298 126.083zM104.827 238.789l-0.426-109.627 -6.031 109.166L104.827 238.789zM114.202 220.376l-9.991-92.682 7.806 93.681L114.202 220.376zM162.61 237.612l-54.587-110.773 48.254 112.112L162.61 237.612zM167.971 224.657l-55.949-97.521L165.4 228.103 167.971 224.657zM198.084 217.32l-79.836-96.065 74.605 101.301L198.084 217.32zM212.936 217.344l-74.315-77.444 73.314 80.159L212.936 217.344zM214.521 176.351l-91.122-60.95 87.131 66.045L214.521 176.351zM233.319 178.757l-92.776-57.118 92.852 60.845L233.319 178.757zM248.926 148.738l-104.393-33.471 105.123 36.601L248.926 148.738zM248.518 172.422l-83.533-41.113 83.608 44.841L248.518 172.422z" fill="#7dd191" stroke-width="none" opacity="1" stroke="none"></path></g><g id="svga-group-subwrapper" ><g id="svga-group-hair-back" ><path id="SvgjsPath4977" d="M38.058 105.866c-4.527-10.708-3.86-15.133-2.654-23.504 -2.078 2.251-3.322 5.27-6.713 8.063 0.263-2.006 4.269-13.639 4.587-14.493 -3.844 3.504-5.969 4.251-7.809 4.972 1.242-1.853 2.066-4.007 3.9-7.933h11.529c0.231 4.281 1.066 9.569 2.312 14.214C42.551 87.622 40.819 90.365 38.058 105.866zM158.91 74.599c-0.047 3.839-1.342 11.034-2.908 15.869 0.805 0.541 1.743 1.173 1.539 1.009 5.951 4.778 6.908 5.603 7.514 13.386 4.324-9.33 0.656-21.307 0.439-30.263H158.91zM165.502 74.599h4.441c-0.582 1.969-1.936 4.788-3.422 6.633C165.963 79.067 165.656 75.986 165.502 74.599z" fill="#1b141c" stroke-width="none" opacity="1"></path><path id="SvgjsPath4978" d="M34.21 74.635c-3.399 8.93-3.599 11.16-5.399 15.54 2.85-2.348 4.987-6.981 6.9-8.22 -0.33 3.02-1.9 9.12-0.15 15.8 0.66 2.53 1.5 4.98 2.511 7.37 0.26-3.56 0.79-13.93 4.079-17.08 -2.26 5.95-3.55 13.73-3.55 19.8 -6.41-11.17-4.939-17.3-3.43-25.09 -2.34 2.67-3 6.01-7.49 8.73 1.53-3.23 2.021-7.07 5.19-14.94 -2.63 2.63-4.4 3.68-7.91 4.72 1.318-2.181 2.478-4.946 3.497-7.194h1.082c-0.999 2.154-2.031 4.326-3.289 6.204C28.881 79.245 31.4 77.325 34.21 74.635zM156.002 90.468c0.216 0.149 1.676 1.152 2.332 1.728 2.736 2.402 6.264 4.594 6.018 15.28 4.543-7.848 3.954-19.464 2.539-25.79 2.017-2.169 3.379-4.842 4.074-7.094l-1.203-0.011c-0.582 1.969-1.655 4.34-3.141 6.185 -0.56-2.165-0.865-4.579-1.019-5.966l-0.108-0.2c0.217 8.956 3.115 19.588-0.243 29.516C164.645 96.333 162.841 94.915 156.002 90.468z" fill="#000000" stroke-width="none" opacity="1"></path></g><g id="svga-group-humanbody-single"><path id="SvgjsPath2893" d="M195.417 199.778c-2.196-4.746-8.195-11.779-14.86-13.722 -8.239-2.403-26.837-5.308-33.733-6.923 -5.528-1.296-16.662-11.294-20.564-14.65 -0.7-0.6-1.273-1.839-1.287-2.76 -0.139-10.864 4.195-39.724 4.195-39.724H100 70.833c0 0 4.334 28.859 4.193 39.724 -0.011 0.921-0.587 2.16-1.285 2.76 -3.902 3.356-15.036 13.354-20.564 14.65 -6.897 1.615-25.495 4.619-33.733 7.022 -6.667 1.942-12.664 8.876-14.86 13.622 -3.708 8.008-4.584 22.5-4.584 35h100 100C200 222.278 199.123 207.786 195.417 199.778z" fill="#daa488" stroke-width="none" opacity="1" stroke="none"></path><path id="SvgjsPath2894" d="M159.156 184.058c24.342 3.542 34.586 8.708 37.794 50.721H200c0-12.5-0.877-26.992-4.583-35 -2.196-4.746-8.195-11.779-14.86-13.722 -8.239-2.403-26.837-5.308-33.733-6.923 -5.528-1.296-18.242-12.069-21.643-16.35 3.36 4.704 12.791 15.605 21.054 18.46C150.188 182.61 153.48 183.232 159.156 184.058zM53.766 181.244c8.263-2.854 17.693-13.756 21.054-18.46 -3.4 4.28-16.114 15.054-21.643 16.35 -6.896 1.615-25.494 4.619-33.733 7.022 -6.665 1.942-12.664 8.876-14.86 13.622 -3.706 8.008-4.583 22.5-4.583 35h3.05c3.188-41.744 13.475-47.183 37.794-50.721C46.52 183.232 49.813 182.61 53.766 181.244z" fill="#e9bfa9" stroke-width="none" opacity="1" stroke="none"></path><path id="SvgjsPath2895" d="M95.646 197.62c0 0-5.074-1.609-7.083-2.379 -10.449-4.009-44.395-6.607-44.395-6.607s35.754 1.419 43.644 2.779c-0.458-4.767-3.017-20.004-3.017-20.004s5.149 16.815 6.409 21.057C91.878 194.734 95.646 197.62 95.646 197.62zM106.445 196.278c-0.089 0.073-0.191 0.168-0.302 0.268C106.256 196.461 106.358 196.372 106.445 196.278zM95.646 197.62c0 0 2.893 2.992 4.347 3.03 1.91 0.051 4.828-2.899 6.151-4.104 -1.265 0.957-4.159 1.391-5.31 1.436C99.504 198.033 95.646 197.62 95.646 197.62zM116.664 190.101c-1.545 0.248-4.386 0.789-4.386 0.789l2.287-14.89c-0.646 3.071-4.474 16.211-8.12 20.278 1.91-1.616 6.158-2.391 8.324-2.704 10.236-1.484 10.232-1.483 41.062-4.94C155.831 188.634 126.76 188.479 116.664 190.101z" fill="#cb8b6a" stroke-width="none" opacity="1" stroke="none"></path><path id="SvgjsPath2896" d="M195.417 199.778c-2.196-4.746-8.195-11.779-14.86-13.722 -8.239-2.403-26.837-5.308-33.733-6.923 -5.528-1.296-16.662-11.294-20.564-14.65 -0.7-0.6-1.273-1.839-1.287-2.76 -0.139-10.864 4.195-39.724 4.195-39.724H100 70.833c0 0 4.334 28.859 4.193 39.724 -0.011 0.921-0.587 2.16-1.285 2.76 -3.902 3.356-15.036 13.354-20.564 14.65 -6.897 1.615-25.495 4.619-33.733 7.022 -6.667 1.942-12.664 8.876-14.86 13.622 -3.708 8.008-4.584 22.5-4.584 35h100 100C200 222.278 199.123 207.786 195.417 199.778z" fill="none" stroke="#ac5f38" stroke-width="1.5" opacity="1"></path></g><g id="svga-group-chinshadow-single"><path id="SvgjsPath5141" d="M75.464 163.188c5.276 4.256 10.716 8.678 24.538 8.678 13.815 0 19.256-4.418 24.531-8.672 -0.188-0.49-0.305-0.997-0.312-1.461 -0.088-6.889 1.573-20.711 2.835-30.131 -15.695-2.201-38.418-2.201-54.113 0 1.261 9.421 2.922 23.242 2.833 30.13C75.771 162.188 75.654 162.695 75.464 163.188z" fill="url(#SvgjsLinearGradient5142)" opacity="1"></path></g><g id="svga-group-clothes-single" ><path id="SvgjsPath3577" d="M-3.682 236.192c-2.914-24.293 8.022-47.09 34.496-54.611 7.77-2.208 5.691-3.341 6.867-3.41 -0.039-0.211-0.045-0.2-0.045-0.63h-0.036c0.087-8.03 9.028-6.453 11.587-6.984 10.121-2.158 13.558-12.786 25.115-9.985 0.284 2.437 0.075 5.248-1.371 15.663 10.899 23.466 22.722 21.437 26.925 34.571 3.815-11.746 17.339-13.617 27.306-34.576 -0.655-5.884-2.083-11.033-1.482-15.935l0.057-0.042c7.744-2.583 11.127 0.874 14.21 3.854 9.397 9.083 14.382 3.325 19.085 7.457 1.871 1.659 2.547 3.997 2.547 6.518 21.412 3.11 45.974 9.898 41.089 57.481l0.096 0.104C181.094 235.667 57.546 241.095-3.682 236.192z" fill="#1d282e" stroke-width="none" opacity="1" stroke="none"></path><path id="SvgjsPath3578" d="M100.268 209.685c4.229-10.638 16.946-13.132 26.543-32.755 0.098-0.108 0.347-0.591 0.656-1.237 -0.164-1.826-0.372-3.747-1.213-5.757 -0.522-3.35-0.939-6.489-0.587-9.535 1.974 0.578 3.842 1.262 5.12 2.66 1.882 2.052 0.455 5.609-1.346 9.042C126.063 186.844 117.594 197.493 100.268 209.685zM169.282 198.859c2.938 10.376 4.895 26.928 2.544 37.445 1.962-0.045 2.686-0.097 4.506-0.138C177.146 225.12 175.154 207.48 169.282 198.859zM137.604 200.735c-12.805 7.48-25.687 10.358-37.321 20.291 -11.64-9.904-24.647-11.637-37.453-19.108 -5.87-2.36-14.874-10.699-20.377-16.572 17.313 26.284 29.706 18.823 57.434 36.538 27.736-17.715 40.205-11.692 57.516-37.974C151.9 189.782 143.476 198.39 137.604 200.735zM99.81 210.936c-4.238-10.644-16.459-14.383-26.056-34.006 -0.093-0.108-0.343-0.591-0.652-1.237 0.156-1.826-0.262-3.841 0.586-5.857 0.521-3.358 0.748-6.092 0.393-9.132 -1.969 0.574-3.025 0.959-4.303 2.357 -1.88 2.052-0.453 5.609 1.347 9.042C74.502 186.844 82.479 198.74 99.81 210.936zM27.163 197.688c-4.305 9.396-4.34 27.432-3.528 38.479 1.821 0.041 2.548 0.093 4.506 0.138C25.791 225.787 26.379 208.26 27.163 197.688zM99.888 212.964c16.389-4.909 33.813-13.894 48.305-35.847 -13.084 17.643-32.525 28.063-47.926 34.455 -15.89-5.762-34.915-17.221-46.006-32.635C67.257 200.226 83.508 208.055 99.888 212.964z" fill="#101a1f" stroke-width="none" opacity="1" stroke="none"></path><path id="SvgjsPath3579" d="M202.762 235.667c-0.115 0-0.256 0.001-0.374 0.001 -0.427-48.615-27.497-50.574-42.48-53.725 -2.345 0-3.563-6.505-5.288-8.24 -1.467-1.475-12.769-1.475-16.348-11.169 0.583 0.513 1.131 1.052 1.674 1.573 9.397 9.083 14.382 3.325 19.085 7.457 1.871 1.659 2.547 3.997 2.547 6.518 21.412 3.11 45.974 9.898 41.089 57.481L202.762 235.667zM-3.968 236.84c0.114 0 0.255 0.001 0.376 0.001 4.759-38.632 16.029-50.811 43.543-55.364 3.451-1.313 1.634-3.81 3.362-5.544 1.467-1.468 9.627-1.5 20.924-13.389 -0.582 0.513-3.075 1.042-3.615 1.563 -9.398 9.083-16.485 6.51-19.088 7.457 -3.209 1.188-3.707 4.028-3.707 6.546 -21.414 3.111-44.161 14.974-41.702 58.626L-3.968 236.84z" fill="#2d373d" stroke-width="none" opacity="1" stroke="none"></path><path id="SvgjsPath3580" d="M161.69 177.978c0-9.858-9.265-7.895-13.529-8.812 -9.409-2.02-9.113-12.916-22.582-8.985 -0.574 4.657 0.516 8.738 1.473 15.997 -9.877 20.755-23.576 23.093-27.196 34.245 -3.957-12.38-16.045-11.134-26.81-34.171 1.498-10.838 1.648-13.354 1.36-15.774 -10.271-2.349-12.588 4.32-21.876 8.776 -5.637 2.642-7.229 0.263-12.067 2.633 -2.007 0.968-3.018 3.609-2.946 5.767 -0.013 0.01 0 0.01 0 0.01 0 0.139 0 0.267 0.023 0.396 -1.175 0.082 0.546 0.074-7.323 1.346 -25.363 4.1-36.61 25.534-34.005 56.906 11.89 0 1.011 4.382 183.147-0.077 8.456-0.214 22.799-0.447 23.402-0.447C208.321 189.265 184.836 181.568 161.69 177.978zM-3.624 236.057c2.579-36.004 8.018-50.026 41.046-57.329 17.978 29.839 39.98 25.499 62.232 42.189 -20.166-16.771-41.302-14.549-61.622-42.583 -0.228-2.354 1-4.943 3.535-5.959 1.796-0.702 3.72-0.498 5.6-0.488 7.087 0.054 12.546-5.502 17.793-9.578 2.499-1.67 6.22-1.752 9.2-1.292 0.231 3.874-1.262 9.721-1.762 13.845 -1.042-2.295-2.029-4.664-3.015-7.022 12.47 36.624 24.903 28.334 30.461 43.525 -1.177-0.327-21.014-7.468-36.822-23.188 -3.358-3.325-10.011-10.656-10.516-11.34 19.573 26.51 32.079 27.86 47.391 34.691 0 0.01 0.021 0.035 0.021 0.048 0.012 0.036 0.068 0.221 0.086 0.256 0.074-0.033 0.158-0.07 0.239-0.091 0.026-0.022 0.047-0.033 0.08-0.033 2.122-1.043 16.065-5.902 26.681-13.2 10.927-7.517 23.39-23.821 22.451-22.64 -18.253 18.573-21.075 22.785-49.212 35.67 -0.027 0-0.048-0.01-0.069-0.021 -0.022-0.131-0.064-0.257-0.107-0.387 0.011-0.062 0.032-0.121 0.054-0.178 4.948-13.579 19.476-8.33 31.51-45.554 -1.232 3.216-2.527 6.382-3.979 9.486 -0.457-5.455-2.042-9.756-1.865-14.247 2.084-0.693 7.742-1.022 9.308 0.542 6.529 5.586 7.059 9.677 17.696 9.677 3.411 0.02 7.871 0.45 8.375 6.708 -0.627 0.922-5.291 6.431-9.703 10.809 -15.438 15.368-29.249 15.664-50.619 32.007 0.521 0 1.605-1.131 2.029-1.418 16.712-11.864 28.719-11.677 44.085-24.249 7.082-5.785 13.897-15.044 14.63-16.222 0.022 0.013 0.059 0.013 0.079 0.013 28.198 4.853 42.321 15.462 40.764 57.069C76.043 234.783 58.884 238.145-3.624 236.057z" fill="#000000" stroke-width="none" opacity="1" stroke="none"></path></g><g id="svga-group-head" ><g id="svga-group-ears-left" ><path id="SvgjsPath4987" d="M47.34 82.506c-1.378-2.405-9.403-6.675-11.855-6.501 -4.229 0.299-5.137 5.269-5.446 7.648 -0.609 4.696 0.645 10 1.485 13.201 0.687 2.615 2.874 7.578 4.214 9.883 1.197 2.062 4.145 5.792 5.733 7.525 1.398 1.529 4.73 4.311 7.248 3.632 2.769-0.744 6.015-3.945 6.239-5.312C56.165 105.172 50.926 88.763 47.34 82.506z" fill="#daa488" stroke="#ac5f38" stroke-width="1.5" opacity="1"></path><path id="SvgjsPath4988" d="M42.903 99.38c-0.142-0.584 0.007-1.569 0.151-2.521 0.131-0.868 0.255-1.686 0.18-2.265 -0.284-2.169-1.888-6.29-2.936-8.524 -1.206-2.568-3.157-5.803-5.602-6.639 -1.011-0.346-2.073-0.522-2.145-0.241 -0.611 1.943-0.563 7.341-0.212 11.338 0.987 11.242 10.375 19.34 11.872 21.045 0.276 0.314 0.566 0.501 0.637 0.426 0.072-0.076-0.1-0.388-0.375-0.704 -1.477-1.692-8.314-8.684-9.27-13.098 -1.012-4.685 3-12.386 3.776-13.855 0.397 0.69 0.732 1.352 0.991 1.904 0.204 0.434 0.429 0.941 0.66 1.489 -0.456 0.767-3.656 6.36-2.489 10.836 0.431 1.651 2.379 3.778 3.67 4.362 0.71 0.321 0.978 0.801 1.287 1.355 0.359 0.645 0.765 1.374 1.946 1.903 0.24 0.108 0.457 0.151 0.649 0.151 0.333 0 0.586-0.135 0.773-0.295 0.019 0.282-0.349 2.52-0.357 2.853 -0.012 0.431 0.045 0.787 0.146 0.796 0.101 0.008 0.207-0.334 0.221-0.766 0.016-0.529 0.379-3.061 0.289-3.372 -0.264-0.923-1.073-1.964-1.93-3.068C43.994 101.407 43.122 100.284 42.903 99.38zM34.428 95.416c-2.316-7.184 1.456-13.479 1.977-14.464 0.906 0.826 1.704 1.932 2.354 3.015C38.286 84.83 34.526 90.584 34.428 95.416zM45.187 105.831c-1.069-0.479-1.427-1.12-1.774-1.742 -0.313-0.562-0.637-1.143-1.458-1.515 -0.179-0.082-0.375-0.204-0.576-0.346 -2.646-6.304 0.289-9.059 1.025-9.625 0.226 0.771 0.394 1.478 0.468 2.045 0.067 0.521-0.058 1.348-0.179 2.148 -0.149 0.992-0.305 2.018-0.144 2.681 0.239 0.989 1.137 2.146 2.005 3.263 0.771 0.993 1.562 2.015 1.832 2.849C46.271 105.757 45.905 106.155 45.187 105.831z" fill="#ac5f38" stroke-width="none" opacity="1"></path></g><g id="svga-group-ears-right" ><path id="SvgjsPath4989" d="M152.398 82.506c1.377-2.405 9.402-6.675 11.855-6.501 4.229 0.299 5.137 5.269 5.445 7.648 0.609 4.696-0.645 10-1.484 13.201 -0.688 2.615-2.875 7.578-4.215 9.883 -1.197 2.062-4.145 5.792-5.732 7.525 -1.398 1.529-4.73 4.311-7.248 3.632 -2.77-0.744-6.016-3.945-6.238-5.312C143.574 105.172 148.813 88.763 152.398 82.506z" fill="#daa488" stroke="#ac5f38" stroke-width="1.5" opacity="1"></path><path id="SvgjsPath4990" d="M154.902 102.491c-0.855 1.104-1.666 2.146-1.93 3.068 -0.09 0.312 0.273 2.843 0.289 3.372 0.014 0.432 0.119 0.773 0.221 0.766 0.102-0.009 0.158-0.365 0.146-0.796 -0.01-0.333-0.377-2.57-0.357-2.853 0.188 0.16 0.439 0.295 0.771 0.295 0.193 0 0.41-0.043 0.65-0.151 1.182-0.53 1.588-1.259 1.945-1.903 0.311-0.555 0.578-1.034 1.287-1.355 1.291-0.584 3.24-2.711 3.67-4.362 1.168-4.476-2.031-10.07-2.488-10.836 0.23-0.548 0.457-1.056 0.66-1.489 0.26-0.552 0.594-1.214 0.99-1.904 0.777 1.469 4.789 9.17 3.777 13.855 -0.955 4.415-7.793 11.406-9.27 13.098 -0.275 0.316-0.447 0.628-0.375 0.704 0.072 0.075 0.361-0.111 0.637-0.426 1.498-1.705 10.885-9.803 11.873-21.045 0.35-3.997 0.396-9.395-0.213-11.338 -0.072-0.281-1.135-0.104-2.145 0.241 -2.445 0.836-4.396 4.071-5.604 6.639 -1.047 2.234-2.65 6.354-2.936 8.524 -0.076 0.579 0.049 1.397 0.18 2.265 0.145 0.951 0.293 1.936 0.15 2.521C156.617 100.284 155.744 101.407 154.902 102.491zM160.979 83.966c0.65-1.083 1.449-2.188 2.355-3.015 0.52 0.986 4.291 7.28 1.977 14.464C165.211 90.584 161.453 84.83 160.979 83.966zM153.352 105.59c0.271-0.834 1.063-1.856 1.832-2.849 0.869-1.118 1.766-2.274 2.006-3.263 0.16-0.663 0.006-1.689-0.145-2.681 -0.121-0.8-0.246-1.627-0.178-2.148 0.074-0.567 0.242-1.273 0.467-2.045 0.736 0.566 3.672 3.321 1.025 9.625 -0.201 0.142-0.396 0.264-0.576 0.346 -0.82 0.372-1.145 0.953-1.457 1.515 -0.348 0.622-0.705 1.263-1.775 1.742C153.834 106.155 153.467 105.757 153.352 105.59z" fill="#ac5f38" stroke-width="none" opacity="1"></path></g><g id="svga-group-faceshape-wrap" ><g id="svga-group-faceshape-single" ><path id="SvgjsPath5138" d="M100.002 0.867C66.384 0.92 39.082 28.536 39.134 62.56c0.008 5.403 0.704 10.643 2.002 15.634h0.001c0.012 0.054 11.542 38.591 14.02 51.25 1.382 7.06 9.063 15.656 16.531 20.849 6.967 4.845 11.263 11.574 28.313 11.574s21.346-6.729 28.313-11.574c7.468-5.192 15.149-13.789 16.531-20.849 2.479-12.658 14.009-51.196 14.02-51.25h0.002c1.298-4.992 1.994-10.231 2.002-15.634C160.923 28.536 133.62 0.92 100.002 0.867z" fill="#daa488" stroke-width="none" opacity="1"></path><path id="SvgjsPath5139" d="M146.772 23.096c7.478 10.35 11.917 23.245 11.898 37.227 -0.009 5.403-0.679 10.643-1.93 15.634h-0.002c-0.011 0.054-11.124 38.591-13.512 51.25 -1.335 7.06-8.737 15.656-15.935 20.849 -6.718 4.845-10.854 11.575-27.291 11.575 -16.434 0-20.575-6.73-27.291-11.575 -7.197-5.192-14.602-13.789-15.931-20.849 -2.391-12.658-13.504-51.195-13.515-51.25h0c-1.252-4.992-1.922-10.231-1.931-15.634 -0.021-13.978 4.416-26.868 11.889-37.217 -8.812 10.697-14.112 24.45-14.089 39.453 0.008 5.403 0.704 10.643 2.002 15.634h0.001c0.012 0.054 11.542 38.591 14.02 51.25 1.382 7.06 9.063 15.656 16.531 20.849 6.967 4.845 11.263 11.574 28.313 11.574s21.346-6.729 28.313-11.574c7.468-5.192 15.149-13.789 16.531-20.849 2.479-12.658 14.009-51.196 14.02-51.25h0.002c1.298-4.992 1.994-10.231 2.002-15.634C160.894 47.552 155.589 33.795 146.772 23.096z" fill="#d29779" stroke-width="none" opacity="1"></path><path id="SvgjsPath5140" d="M100.002 0.867C66.384 0.92 39.082 28.536 39.134 62.56c0.008 5.403 0.704 10.643 2.002 15.634h0.001c0.012 0.054 11.542 38.591 14.02 51.25 1.382 7.06 9.063 15.656 16.531 20.849 6.967 4.845 11.263 11.574 28.313 11.574s21.346-6.729 28.313-11.574c7.468-5.192 15.149-13.789 16.531-20.849 2.479-12.658 14.009-51.196 14.02-51.25h0.002c1.298-4.992 1.994-10.231 2.002-15.634C160.923 28.536 133.62 0.92 100.002 0.867z" fill="none" stroke="#ac5f38" stroke-width="1.5" opacity="1"></path></g></g><g id="svga-group-mouth-single" ><path id="SvgjsPath3741" d="M99.983 141.177c-3.24 0-4.753-3.8-4.753-3.8s4.826 0.199 9.279 0.933C104.509 138.31 102.832 141.177 99.983 141.177z" fill="url(#SvgjsLinearGradient3742)" opacity="1"></path><path id="SvgjsPath3745" d="M87.792 135.571c-0.373-0.33 1.528-3.373 3.926-4.045 3.031-0.882 5.759 0.026 7.991 0.413 2.034 0.354 5.041 0.049 7.028 0.579 2.249 0.6 8.464 3.283 7.981 3.8 -0.238 0.255-4.963-1.676-8.076-2.278 -1.98-0.384-4.881-0.086-6.874-0.413 -2.062-0.337-4.47-1.21-7.268-0.805C89.962 133.189 88.217 135.947 87.792 135.571z" fill="#ac5f38" stroke-width="none" opacity="1"></path></g><g id="svga-group-eyes-left" ><g id="svga-group-eyesback-left"><path id="SvgjsPath4821" d="M62.381 89.681c2.428 2.331 6.769 2.584 13.004 2.584 6.229 0 9.858-1.361 11.353-4.016 1.805-3.206-3.878-9.816-12.912-9.816C68.021 78.433 55.521 83.098 62.381 89.681z" fill="url(#SvgjsRadialGradient4822)" opacity="1"></path></g><g id="svga-group-eyesiriswrapper-left" transform="translate(0.5 1.5)"><g id="svga-group-eyesiriscontrol-left" ><g id="svga-group-eyesiris-left" ><path id="SvgjsPath4879" d="M80 84c0 3.313-2.687 6-6 6 -3.313 0-6-2.687-6-6l0 0c0-3.314 2.687-6 6-6C77.313 77.999 80 80.686 80 84L80 84z" fill="#4d3623" stroke-width="none" opacity="1"></path><path id="SvgjsPath4880" d="M73.328 78.066c-0.023 0.003-0.047 0.006-0.071 0.009 0.029 0.135 0.057 0.271 0.085 0.406C73.336 78.344 73.333 78.204 73.328 78.066zM73.341 78.48c0.07 1.972 0.185 3.729 0.517 4.364C74.033 82.148 73.735 80.414 73.341 78.48zM73.859 82.845c-0.043 0.167-0.108 0.281-0.208 0.319 -0.1 0.038-0.226-0.006-0.368-0.103 0.041 0.167 0.037 0.297-0.036 0.378 -0.072 0.081-0.201 0.101-0.373 0.078 0.113 0.13 0.171 0.249 0.146 0.353 -0.027 0.104-0.134 0.182-0.293 0.242 0.159 0.063 0.266 0.141 0.291 0.245 0.025 0.104-0.033 0.223-0.145 0.352 0.17-0.021 0.301 0.001 0.371 0.082 0.071 0.081 0.075 0.212 0.035 0.379 0.141-0.097 0.265-0.139 0.365-0.1 0.101 0.038 0.166 0.152 0.206 0.32 0.081-0.152 0.171-0.249 0.28-0.26 0.104-0.014 0.216 0.059 0.329 0.188 0.001-0.172 0.037-0.299 0.127-0.36 0.088-0.061 0.219-0.049 0.379 0.013 -0.078-0.152-0.105-0.281-0.055-0.377 0.05-0.095 0.173-0.146 0.344-0.166 -0.141-0.099-0.227-0.2-0.225-0.308 0-0.108 0.084-0.209 0.227-0.306 -0.17-0.021-0.291-0.072-0.342-0.167 -0.049-0.095-0.022-0.225 0.058-0.377 -0.162 0.06-0.292 0.072-0.38 0.011 -0.089-0.061-0.125-0.188-0.125-0.36 -0.112 0.128-0.224 0.199-0.33 0.185C74.029 83.092 73.938 82.998 73.859 82.845zM74.466 82.92c0.479-0.535 1.021-2.209 1.57-4.104C75.182 80.593 74.467 82.202 74.466 82.92zM76.035 78.816c0.06-0.122 0.121-0.246 0.178-0.37 -0.021-0.007-0.042-0.017-0.063-0.026C76.112 78.553 76.074 78.686 76.035 78.816zM74.972 83.27c0.672-0.252 1.931-1.483 3.297-2.905C76.688 81.541 75.306 82.634 74.972 83.27zM78.269 80.365c0.1-0.075 0.203-0.15 0.305-0.225 -0.014-0.018-0.03-0.033-0.042-0.049C78.445 80.181 78.358 80.274 78.269 80.365zM75.254 83.814c0.713 0.088 2.4-0.417 4.272-1.041C77.578 83.081 75.848 83.406 75.254 83.814zM79.526 82.774c0.11-0.016 0.225-0.034 0.337-0.052 -0.004-0.019-0.009-0.038-0.014-0.057C79.742 82.701 79.632 82.738 79.526 82.774zM75.253 84.427c0.59 0.412 2.318 0.747 4.262 1.063C77.65 84.857 75.967 84.342 75.253 84.427zM79.516 85.49c0.095 0.033 0.191 0.067 0.285 0.098 0.005-0.017 0.009-0.033 0.012-0.05C79.716 85.523 79.615 85.507 79.516 85.49zM74.965 84.97c0.333 0.637 1.708 1.738 3.282 2.924C76.888 86.464 75.638 85.226 74.965 84.97zM78.248 87.892c0.059 0.062 0.12 0.126 0.179 0.189 0.01-0.012 0.019-0.021 0.03-0.032C78.387 87.997 78.315 87.944 78.248 87.892zM74.46 85.317c-0.003 0.719 0.703 2.331 1.547 4.113C75.468 87.533 74.937 85.855 74.46 85.317zM76.007 89.431c0.021 0.075 0.043 0.152 0.063 0.229 0.015-0.006 0.025-0.01 0.039-0.014C76.076 89.574 76.041 89.5 76.007 89.431zM73.851 85.389c-0.336 0.637-0.461 2.39-0.542 4.361C73.713 87.82 74.022 86.087 73.851 85.389zM73.309 89.75c-0.017 0.075-0.031 0.151-0.047 0.228 0.014 0.003 0.025 0.003 0.039 0.005C73.303 89.906 73.307 89.826 73.309 89.75zM73.28 85.169c-0.596 0.407-1.521 1.904-2.508 3.61C72.026 87.259 73.106 85.867 73.28 85.169zM70.772 88.779c-0.053 0.063-0.108 0.13-0.162 0.193 0.013 0.008 0.024 0.014 0.038 0.024C70.688 88.924 70.731 88.851 70.772 88.779zM72.875 84.71c-0.716 0.083-2.231 0.978-3.898 2.029C70.795 85.977 72.395 85.248 72.875 84.71zM68.976 86.741c-0.086 0.036-0.174 0.072-0.263 0.11 0.006 0.013 0.015 0.027 0.023 0.04C68.817 86.842 68.897 86.791 68.976 86.741zM72.728 84.113c-0.671-0.257-2.429-0.168-4.395-0.011C70.297 84.27 72.055 84.367 72.728 84.113zM68.333 84.102c-0.107-0.01-0.217-0.02-0.323-0.029 0 0.019-0.002 0.038 0 0.056C68.119 84.119 68.228 84.11 68.333 84.102zM72.875 83.519c-0.473-0.539-2.069-1.277-3.881-2.051C70.653 82.528 72.163 83.432 72.875 83.519zM68.994 81.468c-0.104-0.067-0.209-0.134-0.315-0.201 -0.009 0.019-0.019 0.038-0.029 0.055C68.766 81.371 68.882 81.419 68.994 81.468zM73.284 83.061c-0.169-0.698-1.241-2.094-2.485-3.623C71.775 81.15 72.692 82.651 73.284 83.061zM70.799 79.438c-0.067-0.115-0.132-0.232-0.199-0.349 -0.019 0.013-0.039 0.026-0.056 0.039C70.628 79.231 70.716 79.335 70.799 79.438z" fill="url(#SvgjsRadialGradient4881)" opacity="0.7"></path><path id="SvgjsPath4884" d="M74.886 78.086c-0.024-0.003-0.047-0.007-0.07-0.01 -0.007 0.138-0.016 0.277-0.024 0.414C74.822 78.356 74.855 78.22 74.886 78.086zM74.791 78.489c-0.442 1.922-0.787 3.649-0.629 4.35C74.511 82.211 74.671 80.459 74.791 78.489zM74.161 82.839c-0.084 0.15-0.176 0.243-0.283 0.254 -0.106 0.01-0.216-0.064-0.327-0.195 -0.004 0.171-0.042 0.297-0.133 0.356 -0.09 0.059-0.221 0.045-0.38-0.021 0.076 0.155 0.101 0.285 0.049 0.378 -0.053 0.094-0.176 0.142-0.345 0.158 0.137 0.101 0.22 0.204 0.217 0.312 -0.002 0.107-0.089 0.207-0.231 0.302 0.169 0.024 0.29 0.079 0.337 0.174 0.048 0.096 0.018 0.225-0.064 0.375 0.161-0.057 0.292-0.065 0.379-0.002 0.087 0.063 0.12 0.19 0.116 0.363 0.117-0.125 0.229-0.196 0.337-0.179 0.105 0.014 0.194 0.113 0.27 0.268 0.045-0.167 0.113-0.279 0.216-0.315 0.101-0.036 0.225 0.01 0.363 0.111 -0.036-0.167-0.029-0.299 0.044-0.378 0.073-0.079 0.205-0.096 0.376-0.072 -0.111-0.132-0.168-0.251-0.138-0.355 0.028-0.104 0.136-0.18 0.299-0.237 -0.16-0.064-0.263-0.145-0.288-0.25 -0.023-0.105 0.037-0.223 0.154-0.349 -0.172 0.016-0.301-0.006-0.37-0.088 -0.07-0.082-0.072-0.214-0.028-0.379 -0.142 0.094-0.268 0.134-0.367 0.093C74.261 83.122 74.199 83.007 74.161 82.839zM74.729 83.07c0.601-0.394 1.557-1.871 2.578-3.558C76.022 81.007 74.916 82.375 74.729 83.07zM77.307 79.511c0.089-0.102 0.18-0.206 0.268-0.311 -0.019-0.013-0.036-0.028-0.055-0.042C77.449 79.277 77.378 79.396 77.307 79.511zM75.127 83.538c0.715-0.07 2.25-0.934 3.937-1.953C77.231 82.312 75.614 83.01 75.127 83.538zM79.063 81.584c0.117-0.046 0.235-0.092 0.354-0.138 -0.01-0.021-0.021-0.04-0.028-0.059C79.281 81.453 79.173 81.52 79.063 81.584zM75.259 84.137c0.666 0.27 2.426 0.218 4.395 0.101C77.693 84.03 75.938 83.896 75.259 84.137zM79.654 84.237c0.112 0.013 0.226 0.025 0.339 0.037 0-0.02 0.001-0.039 0.002-0.058C79.881 84.223 79.766 84.23 79.654 84.237zM75.1 84.729c0.462 0.551 2.046 1.321 3.842 2.129C77.303 85.763 75.811 84.831 75.1 84.729zM78.941 86.858c0.083 0.057 0.167 0.114 0.25 0.168 0.009-0.015 0.017-0.03 0.025-0.045C79.126 86.942 79.032 86.9 78.941 86.858zM74.68 85.179c0.156 0.701 1.2 2.12 2.414 3.674C76.151 87.119 75.264 85.599 74.68 85.179zM77.094 88.85c0.042 0.075 0.083 0.153 0.125 0.229 0.012-0.009 0.024-0.016 0.037-0.024C77.202 88.987 77.147 88.917 77.094 88.85zM74.103 85.383c-0.188 0.693 0.076 2.433 0.43 4.373C74.502 87.784 74.424 86.026 74.103 85.383zM74.532 89.756c0.001 0.078 0.003 0.158 0.003 0.238 0.014-0.002 0.027-0.004 0.041-0.004C74.562 89.913 74.547 89.833 74.532 89.756zM73.496 85.294c-0.49 0.528-1.064 2.189-1.652 4.072C72.733 87.607 73.481 86.013 73.496 85.294zM71.843 89.366c-0.035 0.068-0.07 0.138-0.104 0.208 0.012 0.006 0.023 0.009 0.036 0.015C71.797 89.516 71.821 89.439 71.843 89.366zM73 84.934c-0.68 0.239-1.962 1.446-3.357 2.838C71.25 86.628 72.652 85.563 73 84.934zM69.644 87.772c-0.067 0.047-0.137 0.098-0.205 0.145 0.01 0.011 0.02 0.02 0.029 0.032C69.525 87.89 69.585 87.832 69.644 87.772zM72.728 84.385c-0.713-0.104-2.407 0.368-4.291 0.952C70.392 85.071 72.125 84.781 72.728 84.385zM68.437 85.339c-0.092 0.013-0.187 0.024-0.283 0.039 0.003 0.015 0.008 0.03 0.013 0.044C68.258 85.396 68.348 85.366 68.437 85.339zM72.741 83.772c-0.582-0.423-2.303-0.792-4.242-1.149C70.353 83.294 72.025 83.843 72.741 83.772zM68.499 82.623c-0.101-0.037-0.205-0.075-0.305-0.112 -0.005 0.019-0.011 0.037-0.015 0.054C68.288 82.584 68.395 82.604 68.499 82.623zM73.038 83.235c-0.318-0.643-1.668-1.769-3.219-2.986C71.147 81.704 72.372 82.968 73.038 83.235zM69.818 80.25c-0.083-0.091-0.167-0.183-0.251-0.275 -0.014 0.016-0.029 0.031-0.042 0.046C69.624 80.097 69.723 80.173 69.818 80.25zM73.551 82.899c0.017-0.718-0.656-2.344-1.464-4.142C72.587 80.663 73.085 82.35 73.551 82.899zM72.087 78.757c-0.034-0.128-0.067-0.259-0.101-0.389 -0.021 0.007-0.043 0.015-0.063 0.023C71.977 78.513 72.033 78.636 72.087 78.757z" fill="url(#SvgjsRadialGradient4885)" opacity="0.4"></path><path id="SvgjsPath4888" d="M76.354 84c0 1.3-1.053 2.353-2.353 2.353 -1.299 0-2.354-1.053-2.354-2.353 0-1.299 1.055-2.354 2.354-2.354C75.301 81.646 76.354 82.7 76.354 84z" fill="#4d3623" stroke-width="none" opacity="1"></path><path id="SvgjsPath4889" d="M76.354 84c0 1.3-1.053 2.353-2.353 2.353 -1.299 0-2.354-1.053-2.354-2.353 0-1.299 1.055-2.354 2.354-2.354C75.301 81.646 76.354 82.7 76.354 84z" fill="#000000" stroke-width="none" opacity="0.9"></path><path id="SvgjsPath4890" d="M70.717 86.748c0.449-0.302 1.059-0.18 1.36 0.268 0.301 0.449 0.182 1.059-0.268 1.36 -0.45 0.303-1.059 0.183-1.36-0.267C70.148 87.66 70.268 87.049 70.717 86.748L70.717 86.748z" fill="url(#SvgjsLinearGradient4891)" opacity="0.5"></path><path id="SvgjsPath4894" d="M75.86 83.672c-0.251 0.374-0.969 0.331-1.606-0.096 -0.638-0.427-0.95-1.078-0.7-1.451l0-0.001c0.25-0.374 0.969-0.331 1.605 0.097C75.798 82.647 76.11 83.297 75.86 83.672 75.86 83.672 75.86 83.672 75.86 83.672z" fill="url(#SvgjsLinearGradient4895)" opacity="0.5"></path><path id="SvgjsPath4898" d="M78.716 82.673c-0.568 0.873-2.036 0.925-3.275 0.117 -1.24-0.808-1.784-2.17-1.215-3.043 0.568-0.872 2.036-0.924 3.275-0.117C78.74 80.439 79.284 81.802 78.716 82.673L78.716 82.673z" fill="url(#SvgjsLinearGradient4899)" opacity="0.75"></path></g></g></g><g id="svga-group-eyesfront-left"><path id="SvgjsPath4846" d="M54.8 79.995c0 13.807 8.507 30.004 19 30.004s19-11.193 19-25 -8.507-25-19-25S54.8 66.188 54.8 79.995zM62.381 89.681c-6.859-6.583 5.641-11.248 11.444-11.248 9.034 0 14.717 6.61 12.912 9.816 -1.494 2.654-5.123 4.016-11.353 4.016C69.149 92.265 64.809 92.011 62.381 89.681z" fill="#daa488" stroke-width="none" opacity="1"></path><path id="SvgjsPath4847" d="M58.697 84.55c-0.075 7.456 8.647 13.464 18.038 13.428 9.389-0.043 16.987-6.116 16.962-13.573 -0.023-7.456-7.647-13.465-17.04-13.426C67.265 71.021 58.799 74.35 58.697 84.55zM73.825 78.633c9.034 0 14.718 6.542 12.912 9.716 -1.494 2.627-5.123 3.975-11.353 3.975 -6.235 0-10.576-0.251-13.005-2.558C55.521 83.25 68.021 78.633 73.825 78.633z" fill="url(#SvgjsRadialGradient4848)" opacity="1"></path><path id="SvgjsPath4852" d="M62.381 89.681c2.428 2.331 6.769 2.584 13.004 2.584 6.229 0 9.858-1.361 11.353-4.016 1.805-3.206-3.878-9.816-12.912-9.816C68.021 78.433 55.521 83.098 62.381 89.681z" fill="url(#SvgjsRadialGradient4853)" opacity="1"></path><path id="SvgjsPath4856" d="M89.188 82.843c0.345-0.344-4.745-7.529-13.379-7.832 -9.13-0.319-16.789 6.017-16.789 6.017s8.302-6.009 16.569-5.565C85.2 75.98 88.916 83.114 89.188 82.843z" fill="#ac5f38" stroke-width="none" opacity="1"></path><path id="SvgjsPath4857" d="M86.479 88.878l0.335-2.293c-3.319-8.705-15.518-11.145-25.718-2.11 -0.359 0.462-0.768 0.821-0.468 1.832l2.711 4.484c-2.466-2.355-3.742-4.143-4.917-5.817l-0.952-0.498c12.896-12.359 27.1-9.455 31.717 1.537l-1.12-0.167L86.479 88.878zM82.57 91.345c-4.308 0.56-7.537 1.078-13.275 0.76C72.953 92.963 78.842 92.698 82.57 91.345z" fill="#153a4d" stroke-width="none" opacity="1"></path></g></g><g id="svga-group-eyes-right" ><g id="svga-group-eyesback-right"><path id="SvgjsPath4829" d="M137.22 89.681c-2.428 2.331-6.769 2.584-13.004 2.584 -6.229 0-9.858-1.361-11.353-4.016 -1.805-3.206 3.878-9.816 12.912-9.816C131.579 78.433 144.079 83.098 137.22 89.681z" fill="url(#SvgjsRadialGradient4830)" opacity="1"></path></g><g id="svga-group-eyesiriswrapper-right" transform="translate(-0.5 1.5)"><g id="svga-group-eyesiriscontrol-right" ><g id="svga-group-eyesiris-right" ><path id="SvgjsPath4902" d="M132 84c0 3.313-2.687 6-5.999 6 -3.313 0-6.001-2.687-6.001-6l0 0c0-3.314 2.688-6 6.001-6C129.313 77.999 132 80.686 132 84L132 84z" fill="#4d3623" stroke-width="none" opacity="1"></path><path id="SvgjsPath4903" d="M125.328 78.066c-0.023 0.003-0.047 0.006-0.071 0.009 0.029 0.135 0.058 0.271 0.085 0.406C125.336 78.344 125.333 78.204 125.328 78.066zM125.341 78.48c0.069 1.972 0.185 3.729 0.518 4.364C126.033 82.148 125.735 80.414 125.341 78.48zM125.858 82.845c-0.042 0.167-0.108 0.281-0.207 0.319 -0.101 0.038-0.226-0.006-0.367-0.103 0.04 0.167 0.036 0.297-0.036 0.378 -0.072 0.081-0.201 0.101-0.372 0.078 0.112 0.13 0.171 0.249 0.146 0.353 -0.028 0.104-0.134 0.182-0.293 0.242 0.158 0.063 0.265 0.141 0.29 0.245 0.025 0.104-0.032 0.223-0.145 0.352 0.17-0.021 0.3 0.001 0.37 0.082 0.071 0.081 0.075 0.212 0.035 0.379 0.141-0.097 0.266-0.139 0.365-0.1 0.102 0.038 0.166 0.152 0.206 0.32 0.08-0.152 0.172-0.249 0.279-0.26 0.105-0.014 0.217 0.059 0.329 0.188 0.002-0.172 0.037-0.299 0.128-0.36 0.087-0.061 0.219-0.049 0.379 0.013 -0.078-0.152-0.104-0.281-0.056-0.377 0.051-0.095 0.174-0.146 0.345-0.166 -0.141-0.099-0.228-0.2-0.225-0.308 -0.001-0.108 0.084-0.209 0.227-0.306 -0.171-0.021-0.291-0.072-0.342-0.167 -0.05-0.095-0.022-0.225 0.057-0.377 -0.161 0.06-0.291 0.072-0.38 0.011s-0.124-0.188-0.125-0.36c-0.111 0.128-0.224 0.199-0.33 0.185C126.029 83.092 125.938 82.998 125.858 82.845zM126.466 82.92c0.479-0.535 1.021-2.209 1.569-4.104C127.182 80.593 126.468 82.202 126.466 82.92zM128.035 78.816c0.06-0.122 0.121-0.246 0.179-0.37 -0.021-0.007-0.042-0.017-0.063-0.026C128.112 78.553 128.074 78.686 128.035 78.816zM126.972 83.27c0.673-0.252 1.932-1.483 3.298-2.905C128.688 81.541 127.307 82.634 126.972 83.27zM130.27 80.365c0.1-0.075 0.202-0.15 0.305-0.225 -0.015-0.018-0.03-0.033-0.042-0.049C130.445 80.181 130.358 80.274 130.27 80.365zM127.255 83.814c0.713 0.088 2.399-0.417 4.271-1.041C129.578 83.081 127.848 83.406 127.255 83.814zM131.526 82.774c0.11-0.016 0.225-0.034 0.337-0.052 -0.005-0.019-0.009-0.038-0.014-0.057C131.742 82.701 131.632 82.738 131.526 82.774zM127.253 84.427c0.591 0.412 2.318 0.747 4.263 1.063C129.65 84.857 127.967 84.342 127.253 84.427zM131.516 85.49c0.095 0.033 0.19 0.067 0.285 0.098 0.005-0.017 0.009-0.033 0.013-0.05C131.716 85.523 131.614 85.507 131.516 85.49zM126.965 84.97c0.332 0.637 1.708 1.738 3.282 2.924C128.889 86.464 127.638 85.226 126.965 84.97zM130.248 87.892c0.059 0.062 0.119 0.126 0.178 0.189 0.01-0.012 0.02-0.021 0.031-0.032C130.387 87.997 130.315 87.944 130.248 87.892zM126.461 85.317c-0.003 0.719 0.702 2.331 1.547 4.113C127.468 87.533 126.937 85.855 126.461 85.317zM128.008 89.431c0.021 0.075 0.043 0.152 0.063 0.229 0.015-0.006 0.026-0.01 0.039-0.014C128.076 89.574 128.041 89.5 128.008 89.431zM125.851 85.389c-0.336 0.637-0.461 2.39-0.542 4.361C125.713 87.82 126.022 86.087 125.851 85.389zM125.309 89.75c-0.017 0.075-0.031 0.151-0.047 0.228 0.014 0.003 0.024 0.003 0.039 0.005C125.303 89.906 125.307 89.826 125.309 89.75zM125.279 85.169c-0.596 0.407-1.521 1.904-2.508 3.61C124.026 87.259 125.105 85.867 125.279 85.169zM122.771 88.779c-0.052 0.063-0.107 0.13-0.161 0.193 0.013 0.008 0.024 0.014 0.037 0.024C122.688 88.924 122.731 88.851 122.771 88.779zM124.874 84.71c-0.716 0.083-2.23 0.978-3.897 2.029C122.795 85.977 124.395 85.248 124.874 84.71zM120.977 86.741c-0.087 0.036-0.175 0.072-0.263 0.11 0.006 0.013 0.014 0.027 0.023 0.04C120.817 86.842 120.897 86.791 120.977 86.741zM124.729 84.113c-0.672-0.257-2.43-0.168-4.396-0.011C122.298 84.27 124.055 84.367 124.729 84.113zM120.333 84.102c-0.106-0.01-0.217-0.02-0.322-0.029 -0.001 0.019-0.003 0.038-0.001 0.056C120.119 84.119 120.228 84.11 120.333 84.102zM124.876 83.519c-0.474-0.539-2.069-1.277-3.882-2.051C122.653 82.528 124.163 83.432 124.876 83.519zM120.994 81.468c-0.104-0.067-0.21-0.134-0.315-0.201 -0.009 0.019-0.019 0.038-0.028 0.055C120.766 81.371 120.883 81.419 120.994 81.468zM125.284 83.061c-0.169-0.698-1.241-2.094-2.485-3.623C123.775 81.15 124.692 82.651 125.284 83.061zM122.799 79.438c-0.067-0.115-0.133-0.232-0.198-0.349 -0.019 0.013-0.039 0.026-0.057 0.039C122.629 79.231 122.716 79.335 122.799 79.438z" fill="url(#SvgjsRadialGradient4904)" opacity="0.7"></path><path id="SvgjsPath4907" d="M126.886 78.086c-0.024-0.003-0.047-0.007-0.07-0.01 -0.008 0.138-0.016 0.277-0.024 0.414C126.821 78.356 126.854 78.22 126.886 78.086zM126.791 78.489c-0.443 1.922-0.787 3.649-0.63 4.35C126.511 82.211 126.671 80.459 126.791 78.489zM126.161 82.839c-0.084 0.15-0.177 0.243-0.283 0.254 -0.106 0.01-0.216-0.064-0.327-0.195 -0.004 0.171-0.042 0.297-0.133 0.356 -0.09 0.059-0.221 0.045-0.38-0.021 0.075 0.155 0.101 0.285 0.049 0.378 -0.054 0.094-0.176 0.142-0.346 0.158 0.138 0.101 0.22 0.204 0.217 0.312 -0.002 0.107-0.089 0.207-0.23 0.302 0.17 0.024 0.289 0.079 0.337 0.174 0.048 0.096 0.018 0.225-0.064 0.375 0.162-0.057 0.293-0.065 0.38-0.002 0.087 0.063 0.12 0.19 0.115 0.363 0.117-0.125 0.229-0.196 0.337-0.179 0.105 0.014 0.194 0.113 0.27 0.268 0.046-0.167 0.113-0.279 0.216-0.315 0.101-0.036 0.226 0.01 0.363 0.111 -0.035-0.167-0.028-0.299 0.045-0.378 0.072-0.079 0.204-0.096 0.375-0.072 -0.11-0.132-0.168-0.251-0.138-0.355 0.027-0.104 0.136-0.18 0.299-0.237 -0.159-0.064-0.263-0.145-0.288-0.25 -0.022-0.105 0.038-0.223 0.154-0.349 -0.172 0.016-0.302-0.006-0.37-0.088 -0.07-0.082-0.072-0.214-0.027-0.379 -0.143 0.094-0.269 0.134-0.368 0.093C126.262 83.122 126.198 83.007 126.161 82.839zM126.729 83.07c0.601-0.394 1.557-1.871 2.578-3.558C128.022 81.007 126.916 82.375 126.729 83.07zM129.307 79.511c0.089-0.102 0.18-0.206 0.269-0.311 -0.02-0.013-0.037-0.028-0.056-0.042C129.449 79.277 129.378 79.396 129.307 79.511zM127.127 83.538c0.715-0.07 2.249-0.934 3.937-1.953C129.231 82.312 127.614 83.01 127.127 83.538zM131.063 81.584c0.116-0.046 0.234-0.092 0.354-0.138 -0.01-0.021-0.021-0.04-0.028-0.059C131.281 81.453 131.173 81.52 131.063 81.584zM127.259 84.137c0.666 0.27 2.426 0.218 4.396 0.101C129.692 84.03 127.938 83.896 127.259 84.137zM131.654 84.237c0.111 0.013 0.226 0.025 0.339 0.037 0.001-0.02 0.001-0.039 0.002-0.058C131.882 84.223 131.766 84.23 131.654 84.237zM127.1 84.729c0.463 0.551 2.046 1.321 3.842 2.129C129.303 85.763 127.811 84.831 127.1 84.729zM130.941 86.858c0.082 0.057 0.167 0.114 0.25 0.168 0.009-0.015 0.018-0.03 0.024-0.045C131.126 86.942 131.032 86.9 130.941 86.858zM126.681 85.179c0.155 0.701 1.199 2.12 2.413 3.674C128.151 87.119 127.265 85.599 126.681 85.179zM129.095 88.85c0.041 0.075 0.082 0.153 0.124 0.229 0.012-0.009 0.023-0.016 0.037-0.024C129.202 88.987 129.146 88.917 129.095 88.85zM126.103 85.383c-0.188 0.693 0.076 2.433 0.43 4.373C126.502 87.784 126.424 86.026 126.103 85.383zM126.532 89.756c0.001 0.078 0.003 0.158 0.003 0.238 0.015-0.002 0.026-0.004 0.04-0.004C126.562 89.913 126.547 89.833 126.532 89.756zM125.495 85.294c-0.489 0.528-1.064 2.189-1.652 4.072C124.733 87.607 125.48 86.013 125.495 85.294zM123.843 89.366c-0.035 0.068-0.069 0.138-0.104 0.208 0.012 0.006 0.022 0.009 0.035 0.015C123.797 89.516 123.821 89.439 123.843 89.366zM125 84.934c-0.68 0.239-1.961 1.446-3.356 2.838C123.25 86.628 124.652 85.563 125 84.934zM121.644 87.772c-0.067 0.047-0.138 0.098-0.205 0.145 0.01 0.011 0.02 0.02 0.029 0.032C121.525 87.89 121.586 87.832 121.644 87.772zM124.728 84.385c-0.713-0.104-2.406 0.368-4.29 0.952C122.392 85.071 124.126 84.781 124.728 84.385zM120.438 85.339c-0.093 0.013-0.188 0.024-0.283 0.039 0.004 0.015 0.008 0.03 0.013 0.044C120.258 85.396 120.348 85.366 120.438 85.339zM124.741 83.772c-0.582-0.423-2.303-0.792-4.242-1.149C122.353 83.294 124.025 83.843 124.741 83.772zM120.499 82.623c-0.101-0.037-0.205-0.075-0.305-0.112 -0.006 0.019-0.011 0.037-0.015 0.054C120.287 82.584 120.395 82.604 120.499 82.623zM125.038 83.235c-0.318-0.643-1.669-1.769-3.22-2.986C123.147 81.704 124.372 82.968 125.038 83.235zM121.818 80.25c-0.083-0.091-0.167-0.183-0.251-0.275 -0.015 0.016-0.028 0.031-0.043 0.046C121.623 80.097 121.724 80.173 121.818 80.25zM125.551 82.899c0.017-0.718-0.656-2.344-1.464-4.142C124.588 80.663 125.085 82.35 125.551 82.899zM124.087 78.757c-0.034-0.128-0.067-0.259-0.102-0.389 -0.021 0.007-0.043 0.015-0.063 0.023C123.977 78.513 124.033 78.636 124.087 78.757z" fill="url(#SvgjsRadialGradient4908)" opacity="0.4"></path><path id="SvgjsPath4911" d="M128.354 84c0 1.3-1.054 2.353-2.353 2.353 -1.3 0-2.354-1.053-2.354-2.353 0-1.299 1.055-2.354 2.354-2.354C127.302 81.646 128.354 82.7 128.354 84z" fill="#4d3623" stroke-width="none" opacity="1"></path><path id="SvgjsPath4912" d="M128.354 84c0 1.3-1.054 2.353-2.353 2.353 -1.3 0-2.354-1.053-2.354-2.353 0-1.299 1.055-2.354 2.354-2.354C127.302 81.646 128.354 82.7 128.354 84z" fill="#000000" stroke-width="none" opacity="0.9"></path><path id="SvgjsPath4913" d="M122.718 86.748c0.448-0.302 1.059-0.18 1.359 0.268 0.302 0.449 0.183 1.059-0.268 1.36 -0.45 0.303-1.059 0.183-1.359-0.267C122.148 87.66 122.268 87.049 122.718 86.748L122.718 86.748z" fill="url(#SvgjsLinearGradient4914)" opacity="0.5"></path><path id="SvgjsPath4917" d="M127.859 83.672c-0.251 0.374-0.969 0.331-1.605-0.096 -0.638-0.427-0.95-1.078-0.7-1.451l0.001-0.001c0.25-0.374 0.969-0.331 1.605 0.097C127.798 82.647 128.11 83.297 127.859 83.672 127.859 83.672 127.859 83.672 127.859 83.672z" fill="url(#SvgjsLinearGradient4918)" opacity="0.5"></path><path id="SvgjsPath4921" d="M130.717 82.673c-0.569 0.873-2.036 0.925-3.276 0.117 -1.239-0.808-1.784-2.17-1.215-3.043 0.568-0.872 2.035-0.924 3.275-0.117C130.74 80.439 131.284 81.802 130.717 82.673L130.717 82.673z" fill="url(#SvgjsLinearGradient4922)" opacity="0.75"></path></g></g></g><g id="svga-group-eyesfront-right"><path id="SvgjsPath4867" d="M125.801 59.999c-10.493 0-19 11.193-19 25s8.507 25 19 25 19-15.513 19-29.319S136.294 59.999 125.801 59.999zM124.216 92.265c-6.229 0-9.858-1.361-11.353-4.016 -1.805-3.206 3.878-9.816 12.912-9.816 5.804 0 18.304 4.665 11.444 11.248C134.792 92.011 130.451 92.265 124.216 92.265z" fill="#daa488" stroke-width="none" opacity="1"></path><path id="SvgjsPath4868" d="M122.943 70.979c-9.393-0.039-17.017 5.971-17.04 13.426 -0.025 7.458 7.573 13.53 16.962 13.573 9.391 0.037 18.113-5.972 18.038-13.428C140.802 74.35 132.336 71.021 122.943 70.979zM137.221 89.766c-2.429 2.307-6.77 2.558-13.005 2.558 -6.229 0-9.858-1.348-11.353-3.975 -1.806-3.173 3.878-9.716 12.912-9.716C131.579 78.633 144.08 83.25 137.221 89.766z" fill="url(#SvgjsRadialGradient4869)" opacity="1"></path><path id="SvgjsPath4873" d="M137.22 89.681c-2.428 2.331-6.769 2.584-13.004 2.584 -6.229 0-9.858-1.361-11.353-4.016 -1.805-3.206 3.878-9.816 12.912-9.816C131.579 78.433 144.079 83.098 137.22 89.681z" fill="url(#SvgjsRadialGradient4874)" opacity="1"></path><path id="SvgjsPath4877" d="M110.413 82.843c-0.345-0.344 4.745-7.529 13.379-7.832 9.13-0.319 16.789 6.017 16.789 6.017s-8.302-6.009-16.569-5.565C114.4 75.98 110.685 83.114 110.413 82.843z" fill="#ac5f38" stroke-width="none" opacity="1"></path><path id="SvgjsPath4878" d="M111.533 85.845l-1.12 0.167c4.617-10.991 18.82-13.896 31.717-1.537l-0.952 0.498c-1.175 1.674-2.451 3.462-4.917 5.817l2.711-4.484c0.3-1.01-0.108-1.37-0.468-1.832 -10.2-9.035-22.398-6.595-25.718 2.11l0.335 2.293L111.533 85.845zM130.306 92.104c-5.738 0.318-8.968-0.2-13.275-0.76C120.759 92.698 126.647 92.963 130.306 92.104z" fill="#153a4d" stroke-width="none" opacity="1"></path></g></g><g id="svga-group-facehighlight-single" ><path id="SvgjsPath2885" d="M141 113.974c0.035 22.622-18.292 40.994-40.938 41.025 -22.642 0.037-41.028-18.273-41.063-40.9 -0.035-22.62 18.292-41.064 40.937-41.1C122.579 72.964 140.967 91.349 141 113.974z" fill="url(#SvgjsRadialGradient2886)" opacity="1"></path><path id="SvgjsPath2889" d="M137.5 53.999c0 20.711-16.789 37.5-37.499 37.5 -20.711 0-37.501-16.789-37.501-37.5s16.79-37.5 37.501-37.5C120.711 16.499 137.5 33.288 137.5 53.999z" fill="url(#SvgjsRadialGradient2890)" opacity="1"></path></g><g id="svga-group-eyebrows-left" ><path id="SvgjsPath4925" d="M53.672 67.988c7.019 3.546 15.071 4.443 31.64 6.435 0.542 0.086 0.929 0.187 1.277 0.191 1.666-0.032 3.083-1.561 2.854-2.926C88.66 66.485 60.682 68.92 53.672 67.988z" fill="#2a232b" stroke-width="none" opacity="1"></path></g><g id="svga-group-eyebrows-right" ><path id="SvgjsPath4926" d="M146.328 67.988c-7.019 3.546-15.071 4.443-31.64 6.435 -0.542 0.086-0.929 0.187-1.277 0.191 -1.666-0.032-3.084-1.561-2.854-2.926C111.34 66.485 139.317 68.92 146.328 67.988z" fill="#2a232b" stroke-width="none" opacity="1"></path></g><g id="svga-group-nose-single" ><path id="SvgjsPath3746" d="M109.895 118.829c0.19-0.512 0.307-1.047 0.396-1.584 0.033-0.198-0.229-0.929-0.252-0.697 -0.101 0.941-0.612 2.262-1.6 2.551 -1.133 0.329-1.783-0.056-1.886-1.172 -0.104-1.125 0.297-2.619-0.109-3.665 -0.264-0.676-0.856-1.226-1.464-1.606 0.458 2.04 0.823 4.704-1.128 6.164 0.167 0.199 0.319 0.293 0.467 0.333 -0.153 0.026-0.308 0.059-0.467 0.13 -0.771 0.352-3.586 1.015-4.404 0.657 -0.193-0.085-0.622-0.152-1.16-0.204 -0.362-0.315-1.023-1.138-1.332-1.328 -1.215-0.751-1.851-2.069-1.926-3.472 -0.163-2.955 1.373-6.245 4.861-7.528 -3.578-1.004-4.064 4.863-6.408 6.172 -1.402 0.783-2.741 1.479-2.716 3.229 0.008 0.579 0.078 1.419 0.34 2.122 -0.421-0.591-0.699-1.125-0.739-0.653 -0.342 3.979 3.522 2.884 5.042 3.158 1.255 0.227 3.412 0.544 4.459 0.563 1.137 0.02 2.858-0.377 3.981-0.563 1.087-0.181 2.985 0.037 4.381-0.59 0.824-0.371 2.006-0.612 2.006-2.211l-0.402 0.326C109.855 118.916 109.878 118.874 109.895 118.829z" fill="#cb8b6a" stroke-width="none" opacity="1"></path><path id="SvgjsPath3747" d="M90.642 116.322c0.15-0.48 0.371-0.961 0.73-1.324 -0.631 1.095-0.719 2.661-0.152 3.799 0.697 1.399 1.94 1.104 3.131 0.563 1.191-0.54 1.188-0.938 2.426-0.526 0.963 0.319 1.737 0.795 2.797 0.793 1.132-0.002 1.977-0.471 3.03-0.798 1.278-0.38 2.357-0.162 3.559 0.378 1.13 0.509 2.426 1.15 3.301-0.117 0.773-1.148 0.69-2.922 0.017-4.092 1.51 1.542 1.145 5.938-1.745 5.384 -0.397-0.08-1.098-0.563-1.451-0.469 -0.64 0.175-1.445 0.007-2.091-0.054 -1.175-0.112-2.195-0.108-3.312 0.174 -0.429 0.1-0.869 0.158-1.309 0.154 -0.525-0.007-1.057-0.268-1.556-0.237 -1.4 0.086-1.984-0.214-3.39-0.124 -1.197 0.077-1.955 1.13-3.142 0.177C90.436 119.125 90.275 117.566 90.642 116.322 90.719 116.078 90.497 116.814 90.642 116.322zM101.211 107.662c0.557 0.115 1.063 0.367 1.531 0.684 -1.391-2.209-4.931-1.408-6.339 0.345C97.843 107.926 99.562 107.296 101.211 107.662 101.478 107.719 100.678 107.543 101.211 107.662z" fill="#ac5f38" stroke-width="none" opacity="1"></path><path id="SvgjsPath3748" d="M93.079 117.678c-0.216-1.586 0.406-3.049-0.995-1.972C91.214 116.375 93.418 120.168 93.079 117.678z" fill="#e9bfa9" stroke-width="none" opacity="1"></path></g><g id="svga-group-beardwrap" ><g id="svga-group-beard-single" ><path id="SvgjsPath3473" d="M100,18.13L100,18.13L100,18.13L100,18.13z" fill="#2a232b" stroke-width="none" opacity="1"></path></g></g><g id="svga-group-mustache-single" ><path id="SvgjsPath3475" d="M100,18.13L100,18.13L100,18.13L100,18.13z" fill="#2a232b" stroke-width="none" opacity="1"></path></g><g id="svga-group-hair-front" ><path id="SvgjsPath4980" d="M57.802 28.734c9.237-8.79 44.55-0.761 55.197 0.239 10.142 0.782 23.526-30.339 43.604 49.479 -0.045 3.839-1.289 10.633-2.796 15.468 -0.145-0.101-0.286-0.208-0.431-0.306 0 0 0.518 3.257-6.059 14.39 0.349-8.073-1.212-13.893-2.492-21.414 -15.709-19.987-30.389-24.674-41.56-28.155 7.5 8.755 14.919 16.79 18.165 25.564 -13.646-9.576-32.408-28.884-32.408-28.884S90.426 59.819 116.709 84C105.766 81.32 85.363 70.32 71.072 49.048c-2.746 4.5 12.4 30.794 12.827 31.801 -7.663-6.086-18.079-14.636-20.755-24.62 0 0-1.571 4.043-2.662 8.635 -2.878 12.162-2.904 27.281-3.429 31.125 -1.665-8.721-1.925-18.482-1.922-18.355 -3.905 17.893-0.419 30.394-0.352 34.724 -5.198-10.435-10.604-22.897-12.177-34.534C42.604 77.824 54.221 27.134 57.802 28.734z" fill="#2a232b" stroke-width="none" opacity="0.1"></path><path id="SvgjsPath4981" d="M29.382 67.866c0.08-5.39 1.12-13.92 2.921-18.78 -3.28 3.39-7.41 7.39-10.78 9.5 4.46-3.86 5.841-7.16 15.921-28.3 6.189-12.98 10.287-26.75 22.378-28.37 4.079-0.56 8.05 0.99 11.779 2.59 9.61-8.79 21.59-12.331 32.671-11.331 33.879 2.51 42.916 24.391 61.036 28.771 -2.84 0.83-7.616-0.468-10.336-1.748 3.75 5.06 2.422 4.531 10.692 12.801 3.369 3.34 6.482 7.444 10.543 9.854 -5.449-0.681-8.313-4.834-16.282-9.104 1.149 1.84 5.249 8.094 11.929 14.494 2.87 2.74 7.6 6.584 10.898 8.914 -2.409-0.96-9.488-3.726-15.607-9.152 3.169 4.531 12.262 12.94 8.145 29.881 -0.832-7.406 0.002-16.415-7.049-20.895 0.784 3.301 3.814 10.222 1.604 17.708H158.91c-0.047 3.839-1.342 10.934-2.908 15.769 -0.151-0.101-0.297-0.208-0.449-0.306 0 0-0.503 3.257-7.344 14.39 0.363-8.073-0.222-13.893-1.553-21.414 -16.346-19.987-31.619-24.674-43.241-28.155 7.804 8.755 13.813 18.837 17.192 27.612 -11.046-11.66-33.834-29.767-33.834-29.767s0.364 4.866 27.712 29.046c-9.449-5.795-29.698-15.006-44.566-36.278 -2.858 4.5 10.819 30.794 11.264 31.801 -7.974-6.086-14.646-16.636-17.435-26.62 0 0-3.716 6.043-4.847 10.635 -2.995 12.162-1.984 22.281-2.528 26.125 -1.732-8.721-3.042-13.482-3.039-13.355 -4.066 17.893 0.604 32.394 0.672 36.724C48.6 100.471 41.934 85.908 40.297 74.271H28.7C29.369 69.944 28.873 69.932 29.382 67.866z" fill="#2a232b" stroke-width="none" opacity="1"></path><path id="SvgjsPath4982" d="M22.764 37.286c3.811-0.17 5.876 0.099 10.356-0.261 0.67-1.53 2.738-5.55 3.438-7.07C33.059 33.055 25.794 36.976 22.764 37.286z" fill="#0c080c" stroke-width="none" opacity="1"></path><path id="SvgjsPath4983" d="M120 6c16.027-2.29 30.9 14.922 44.42 16.002 -2.873 0.59-7.386-1.022-9.989-2.247 3.75 5.06 2.74 5.09 11.011 13.36 3.369 3.34 5.77 6.92 9.83 9.33 -4.352-0.722-7.869-4.955-15.656-9.179C150.467 19.744 136.495 7.833 120 6zM63.748 50.777c0 0-3.716 6.043-4.847 10.635 -2.995 12.162-1.984 22.281-2.528 26.125 -1.732-8.721-3.042-13.482-3.039-13.355 -0.098 0.428-0.185 0.851-0.272 1.275 -3.569 17.303 0.878 31.222 0.944 35.449C48.6 100.471 41.934 86.008 40.297 74.372H28.7c0.669-4.328 0.173-4.44 0.682-6.505 0.08-5.39 1.12-13.92 2.921-18.78 -3.28 3.39-7.41 7.39-10.78 9.5 4.384-3.794 5.799-7.06 15.417-27.242C39.903 26.734 43.257 22.367 47 18c-7 9-11 20-12 31 2-6 8.079-10.064 12.204-14.833C42.858 40.958 39.721 47.555 38 57c1.263-2.166 3.05-3.376 4.352-5 -2.063 6.007-1.46 9.452-0.544 14.033C42.71 58.906 44.209 47.331 48 41c0 11-3.411 21.569 1.005 33.277 -0.041-8.667 3.242-16.555 5.526-22.481 -0.454 2.152-0.105 7.455 0.016 9.648 1.278-6.668 2.146-13.21 6.033-18.583 -1.734-9.968-4.468-20.679-0.784-23.305 -5.987 10.398 12.487 19.472 11.935 19.03 10.333 5.74 16.882 6.44 22.24 7.796 -3.495-2.813-5.311-6.313-8.84-9.096 10 3.45 23.963 14.121 31.086 18.481 1.902 2.784 2.074 3.492 2.641 4.833 -4.081-1.928-9.18-3.742-15.442-5.618 14.409 16.165 11.53 12.905 17.192 27.612 -9.815-10.361-9.8-10.658-32.423-28.645 2.733 3.566 9.971 13.486 26.301 27.924 -3.69-2.263-31.135-17.061-44.566-36.278 -0.641 5.223 0.076 8.654 11.264 31.801C79.136 76.769 71.168 69.641 63.748 50.777zM118.857 60.601c8.503 4.017 17.955 10.501 27.799 22.537 1.331 7.521 1.916 13.341 1.553 21.414 1.527-2.485 2.724-4.558 3.684-6.309 3.342-6.095 3.66-8.081 3.66-8.081 0.152 0.098 0.298 0.205 0.449 0.306 1.566-4.835 2.861-11.629 2.908-15.468h10.733c2.212-7.485-1.049-15.243-1.833-18.544 7.051 4.48 7.24 12.74 7.57 20.16 3.37-16.67-5.95-24.64-8.9-29.41 6.17 4.79 13.061 8.53 15.471 9.49 -3.301-2.33-7.41-5.47-10.28-8.21 -3.639-3.486-6.618-7.18-8.769-10.124C158.216 35.96 154.726 32.363 150 30c7.927 5.284 10.424 13.671 12.956 21.745 -1.214-1.753-3.177-2.936-4.23-4.512 1.251 3.286 3.089 6.694 2.274 10.767 -5-7-7-17-15-23 8.079 8.079 8.639 29.358 8.605 33.148C146.453 29.071 111.941-7.698 77 6c35-11 65 26 69 58 -7-8-9-18-19-23 5 5 8 13 11 19 -11-13-20-26-35-35 7 8 16 15 21 25 3 3 4 7 6 10 -7-7-15.796-14.161-24.869-16.816C115.319 51.958 118.141 58.904 118.857 60.601z" fill="#1b141c" stroke-width="none" opacity="1"></path><path id="SvgjsPath4984" d="M117.766 5.829c8.292-0.029 31.523 6.494 43.094 29.199C148.464 17.819 135.714 9.892 117.766 5.829zM137.845 38.708C124.893 11.58 100.687 3.229 87.714 4.067 97.087 3.465 123.506 13.067 137.845 38.708zM73.181 14.559C72.572 9.286 65.426 3.87 57.615 6.905c-0.671 0.261-1.261 0.737-1.929 0.979C64.214 4.803 72.008 9.383 73.181 14.559zM70.78 17.966c-2.271-3.246-5.344-6.239-9.309-7.198C49.418 7.854 40.4 25.7 38.314 33.687c0.263-1.003 10.596-25.068 23.497-22.066C65.532 12.47 68.414 15.113 70.78 17.966zM69.574 20.271c-1.129 13.933 30.875 23.767 37.895 29.705C94.975 39.407 69.766 32.882 69.574 20.271zM124.793 51.149c-2.651-4.433-13.662-22.247-31.359-32.846 -10.977-6.574-15.238-2.604-17.326-1.636C90.316 10.093 116.346 39.44 124.793 51.149z" fill="#0c080c" stroke-width="none" opacity="1"></path><path id="SvgjsPath4985" d="M154.605 30.218c0 0-12.998-14.019-32.379-20.881C136.712 12.957 145.32 20.083 154.605 30.218zM122.58 10.545c8.373 2.862 22.848 18.934 24.674 22.069C142.53 24.503 131.43 12.888 122.58 10.545zM96.203 7.936c16.427 3.769 31.383 22.259 31.383 22.259C120.613 19.403 109.143 9.004 96.203 7.936zM82.027 17.556c7.952 2.046 25.885 16.866 26.805 18.162C106.244 32.075 90.721 18.78 82.027 17.556zM76.314 19.112c8.738 1.131 15.985 8.446 17.066 9.925C88.838 22.824 84.179 19.303 76.314 19.112zM75.442 21.879c8.537 8.845 21.252 11.429 25.864 17.449C94.935 31.012 83.235 29.092 75.442 21.879zM85.865 42.83c-11.211-6.084-18.966-11.368-20.703-12.851 -1.836-1.565-6.52-5.33-3.095-9.151 -2.542 1.67-2.01 5.382 1.396 8.925C67.167 33.607 84.863 42.83 85.865 42.83 84.895 42.303 85.864 42.83 85.865 42.83zM93.761 46.37c-8.66-2.08-17.527-5.034-24.96-10.046 -5.172-3.487-12.865-11.624-8.86-16.402 1.146-1.371 3.559-2.013 5.297-1.993 -1.732-0.021-3.829 0.4-5.168 1.556 -3.872 3.344 0.268 11.895 6.736 16.54C74.633 41.646 84.462 44.373 93.761 46.37zM94.196 11.99c1.66 0.332 3.306 0.552 4.901 1.161 13.539 5.162 26.441 21.077 26.441 21.077C118.564 23.811 106.82 13.181 94.196 11.99zM95.438 16.421c15.557 5.988 32.561 25.947 33.561 26.663C121.432 31.611 108.664 19.74 95.438 16.421zM56.114 18.851c-10.322-2.044-15.184 15.403-15.779 16.404C43.838 28.076 49.19 18.188 56.114 18.851zM56.22 30.75c-8.761 8.218-6.864 18.622-6.717 23.478C49.338 45.406 51.606 36.237 56.22 30.75z" fill="#3a353a" stroke-width="none" opacity="1"></path><path id="SvgjsPath4986" d="M31.491 50.465c-3.98 10.99-2.87 22.38-2.931 23.38 -0.079 0.171-0.238 0.529-0.317 0.703 1.05-0.224 0.815-0.006 1.079-0.006 2.013-4.338 4.543-10.008 11.318-19.136 -4.29 5.17-8.16 10.6-11.21 16.62 1.811-11.55 9.17-21.13 10.021-22.35 -4.04 5.13-7.82 10.61-9.87 17.39 0.08-5.39 1.319-13.72 3.12-18.58 -3.28 3.39-7.41 7.69-10.78 9.8 4.46-3.86 6.04-6.86 16.12-28 6.189-12.98 9.689-26.55 21.78-28.17 4.079-0.56 8.05 0.79 11.779 2.39 9.61-8.79 21.59-11.83 32.671-10.83 33.879 2.51 42.409 23.86 60.529 28.24 -2.84 0.83-7.65-0.88-10.37-2.16 3.75 5.06 2.74 5.09 11.011 13.36 3.369 3.34 5.77 6.92 9.83 9.33 -4.4-0.73-7.94-5.05-15.91-9.32 1.149 1.84 5.629 8.96 12.31 15.36 2.87 2.74 6.979 5.88 10.28 8.21 -2.41-0.96-9.301-4.7-15.471-9.49 2.95 4.77 12.271 12.74 8.9 29.41 -0.33-7.42-0.52-15.68-7.57-20.16 0.784 3.301 4.045 11.059 1.833 18.544h0.317 0.875c2.142-6.938-0.861-13.751-2.085-17.224 6.409 5.8 6.31 18.31 5.67 24.379 2.521-6.85 3.479-13.449 1.46-20.489 -1.13-3.96-3.5-7.46-5.96-10.71 -0.17-0.23-0.351-0.46-0.521-0.69 4.69 3.76 10.521 7.08 16.11 8.14 0 0-17.069-12.22-24.31-23.26 1.8 1.29 4.25 3.34 6.64 4.95 3.45 2.35 6.17 3.54 10.14 3.04 -4.72-2.17-7.83-6.79-11.149-10.25 -7.37-7.74-4.36-3.42-10.56-11.66 5 2.04 7.649 1.84 10.67 0.75 -1.701-0.4-3.48-0.87-5.08-1.49 -13.41-5.19-28.451-28.98-60.24-29.1 -10.9-0.05-22.641 4.17-30.32 12.49 -1.33-0.61-2.68-1.13-4.04-1.57 -17.26-5.55-23.17 10.32-30.74 26.41 -2.88 2.39-8.47 7.94-16.029 8.68 3.67 0.26 7.54 0.58 12.06 0.2 -6.62 15.06-6.979 16.7-15.57 23.75C24.331 58.795 26.661 55.875 31.491 50.465zM35.961 30.755c-0.7 1.52-2.37 4.34-3.04 5.87 -4.48 0.36-5.55 0.39-9.36 0.56C26.591 36.875 32.461 33.855 35.961 30.755zM39.938 70.539c0 1.85 2.122 11.566 4.412 17.556 -1.18-6.81-1.41-13.92-1.229-20.82 0.18-7.13 1.3-14.12 3.34-20.95 -4.72 19.62-2.17 45.13 7.229 63.271 -1.909-9.51-3.02-19.14-1.81-28.82 0.28-2.24 0.66-4.46 1.16-6.66 0 0-0.92-8.37 1.49-22.32 -1.641 11.57-0.5 22.83 1.76 34.21 -0.22-8.28 0.2-16.63 2.32-24.67 1.159-4.4 2.439-5.78 4.5-10.88 -1.131-4.1-1.711-8.32-2.11-12.54 1.93 12.83 5.399 20.15 12.35 30.55 2.061 3.07 4.2 5.89 7.16 8.15 -2.08-3.64-8.96-19.1-9.37-20.14 -1.37-3.47-2.2-7.06-1.569-10.78 -2.04-3.2-3.83-6.56-5.46-9.99 5.229 9.7 12.039 18.21 20.34 25.49 4.29 3.77 8.859 7.25 13.56 10.48 4.841 3.33 10.04 5.93 15.03 8.99 -6.52-5.46-12.99-11.4-17.41-16.21 -2.68-2.92-5.81-5.87-7.97-9.21 -2.15-3.33-3.08-7.14-4.78-10.7 1.69 2.91 2.9 6.02 4.15 8.13 0.31 0.52 11.819 9.16 16.89 13.98 6.44 6.11 9.75 8.16 15.851 14.6 -2.791-6.18-3.521-9.17-11.131-19.26 -5.02-6.66-7.09-7.03-13.779-17.45 1.729 2.37 3.479 4.67 5.47 6.83 1.04 1.13 2.1 2.22 3.17 3.32 6.21 1.86 11.96 2.92 21.659 8.94 16.671 10.35 20.201 18.04 26.971 24.64 -1.2-4.17-4.88-11.15-8.18-16.9 -3.01-5.25-6.32-10.68-9.99-15.14 4.641 4.16 8.07 9.47 11.13 14.84 3.22 5.68 6.81 11.79 7.899 18.31 -2.109-1.62-4.01-3.43-5.869-5.34 1.119 6.33 1.73 12.93 1.439 19.36 9.016-14.682 12.535-35.524 9.849-48.787 6.943 27.12-5.726 44.18-11.658 54.876 0.46-6.54-0.2-21.98-0.71-26.4 -2.21-2.759-17.912-19.588-41.29-27.14 4.12 4.12 7.729 8.4 10.58 13.51 2.61 4.7 5.1 9.62 6.6 15.03 -5.3-5.3-11.079-10.12-16.739-15.01 -5.82-5.03-11.44-10.28-17.24-15.33 1.569 2.35 3.42 4.57 14.779 15.65 5.99 5.85 15.33 14.29 15.53 14.51 -1-0.38-17.76-9.09-25.62-15.05 -8.22-6.23-17.02-14.11-22.58-22.81 -0.489 6.01 3.061 12.45 4.9 16.33 2 4.21 4.979 11.6 8.229 16.96 -5.04-2.96-8.85-7.15-11.92-12.14 -3.189-5.18-6.06-10.19-7.84-16.03 -1.5 2.98-3.14 5.96-3.84 9.25 -0.74 3.46-1.229 6.95-1.57 10.47 -0.67 7.07-1.43 14.33-1.02 21.44 -1.74-5.47-3.07-10.94-3.64-16.67 -1.7 9.52-0.091 23.48 1.779 37.28 -5.149-7.021-9.5-17.16-11.99-26.3C41.511 81.005 39.658 74.499 39.938 70.539z" fill="#000000" stroke-width="none" opacity="1"></path></g><g id="svga-group-glasses-single" ><path id="SvgjsPath4951" d="M100,18.13L100,18.13L100,18.13L100,18.13z" fill="#26120b" stroke-width="none" opacity="1"></path></g></g></g><rect id="SvgjsRect1036" width="200" height="15" x="0" y="185" fill="#ecf0f1" opacity="0.5" style="display:none;"></rect><text id="SvgjsText1037" font-family="&quot;Roboto&quot;, &quot;Helvetica Neue&quot;, Helvetica, Arial, sans-serif" style="font-size:0.84em;font-family:&quot;Roboto&quot;, &quot;Helvetica Neue&quot;, Helvetica, Arial, sans-serif;text-anchor:middle;font-weight:400;display:none;" font-size="0.84em" text-anchor="middle" font-weight="400" fill="#000000" x="100" y="185"><tspan id="SvgjsTspan1038" dy="1.2em" x="100" style="font-size:0.84em;font-family:&quot;Roboto&quot;, &quot;Helvetica Neue&quot;, Helvetica, Arial, sans-serif;text-anchor:middle;font-weight:400;">Created on Cartoonize.net</tspan></text></g><defs id="SvgjsDefs1001"><radialGradient id="SvgjsRadialGradient2886" cx="100" cy="114" r="41" gradientUnits="userSpaceOnUse" class="svga-on-canvas-facehighlight-gradient-single-0"><stop id="SvgjsStop2887" stop-opacity="0.5" stop-color="#e9bfa9" offset="0" ></stop><stop id="SvgjsStop2888" stop-opacity="0" stop-color="#daa488" offset="0.9" ></stop></radialGradient><radialGradient id="SvgjsRadialGradient2890" cx="100" cy="54" r="37" gradientUnits="userSpaceOnUse" class="svga-on-canvas-facehighlight-gradient-single-1"><stop id="SvgjsStop2891" stop-opacity="0.5" stop-color="#e9bfa9" offset="0" ></stop><stop id="SvgjsStop2892" stop-opacity="0" stop-color="#daa488" offset="0.9" ></stop></radialGradient><radialGradient id="SvgjsRadialGradient3589" cx="100" cy="225" r="250" gradientUnits="userSpaceOnUse" class="svga-on-canvas-backs-gradient-single-1"><stop id="SvgjsStop3590" stop-opacity="0" stop-color="#9de0ad" offset="0" ></stop><stop id="SvgjsStop3591" stop-opacity="1" stop-color="#7dd191" offset="1" ></stop></radialGradient><linearGradient id="SvgjsLinearGradient3742" x1="100" y1="141" x2="100" y2="137" gradientUnits="userSpaceOnUse" class="svga-on-canvas-mouth-gradient-single-0"><stop id="SvgjsStop3743" stop-opacity="1" stop-color="#d29779" offset="0.1" ></stop><stop id="SvgjsStop3744" stop-opacity="1" stop-color="#cb8b6a" offset="1" ></stop></linearGradient><radialGradient id="SvgjsRadialGradient4822" cx="126.275" cy="85.349" r="10.629" gradientTransform="matrix(-1 0 0 1 200 0)" gradientUnits="userSpaceOnUse" class="svga-on-canvas-eyesback-gradient-left-0"><stop id="SvgjsStop4823" stop-opacity="1" stop-color="#ffffff" offset="0" ></stop><stop id="SvgjsStop4824" stop-opacity="1" stop-color="#fdfefe" offset="0.544" ></stop><stop id="SvgjsStop4825" stop-opacity="1" stop-color="#f6f8f9" offset="0.74" ></stop><stop id="SvgjsStop4826" stop-opacity="1" stop-color="#eaeff2" offset="0.879" ></stop><stop id="SvgjsStop4827" stop-opacity="1" stop-color="#d9e3e8" offset="0.992" ></stop><stop id="SvgjsStop4828" stop-opacity="1" stop-color="#d8e2e7" offset="1" ></stop></radialGradient><radialGradient id="SvgjsRadialGradient4830" cx="125.875" cy="85.349" r="10.629" gradientUnits="userSpaceOnUse" class="svga-on-canvas-eyesback-gradient-right-0"><stop id="SvgjsStop4831" stop-opacity="1" stop-color="#ffffff" offset="0" ></stop><stop id="SvgjsStop4832" stop-opacity="1" stop-color="#fdfefe" offset="0.544" ></stop><stop id="SvgjsStop4833" stop-opacity="1" stop-color="#f6f8f9" offset="0.74" ></stop><stop id="SvgjsStop4834" stop-opacity="1" stop-color="#eaeff2" offset="0.879" ></stop><stop id="SvgjsStop4835" stop-opacity="1" stop-color="#d9e3e8" offset="0.992" ></stop><stop id="SvgjsStop4836" stop-opacity="1" stop-color="#d8e2e7" offset="1" ></stop></radialGradient><radialGradient id="SvgjsRadialGradient4838" cx="126.275" cy="85.349" r="10.629" gradientTransform="matrix(-1 0 0 1 200 0)" gradientUnits="userSpaceOnUse" class="svga-on-canvas-eyesfront-gradient-left-0"><stop id="SvgjsStop4839" stop-opacity="1" stop-color="#ffffff" offset="0" ></stop><stop id="SvgjsStop4840" stop-opacity="1" stop-color="#fdfefe" offset="0.544" ></stop><stop id="SvgjsStop4841" stop-opacity="1" stop-color="#f6f8f9" offset="0.74" ></stop><stop id="SvgjsStop4842" stop-opacity="1" stop-color="#eaeff2" offset="0.879" ></stop><stop id="SvgjsStop4843" stop-opacity="1" stop-color="#d9e3e8" offset="0.992" ></stop><stop id="SvgjsStop4844" stop-opacity="1" stop-color="#d8e2e7" offset="1" ></stop></radialGradient><radialGradient id="SvgjsRadialGradient4848" cx="123.715" cy="83.955" fx="135.822" fy="83.989" r="17.219" gradientTransform="matrix(0.9998 0.0206 0.0166 -0.7916 -48.8004 147.8581)" gradientUnits="userSpaceOnUse" class="svga-on-canvas-eyesfront-gradient-left-3"><stop id="SvgjsStop4849" stop-opacity="1" stop-color="#cb8b6a" offset="0" ></stop><stop id="SvgjsStop4850" stop-opacity="0.3" stop-color="#cb8b6a" offset="0.7" ></stop><stop id="SvgjsStop4851" stop-opacity="0" stop-color="#daa488" offset="1" ></stop></radialGradient><radialGradient id="SvgjsRadialGradient4853" cx="123.018" cy="104.865" r="27.497" gradientTransform="matrix(-0.9336 -0.3584 -0.3046 0.7935 223.7724 65.7356)" gradientUnits="userSpaceOnUse" class="svga-on-canvas-eyesfront-gradient-left-4"><stop id="SvgjsStop4854" stop-opacity="0" stop-color="#000000" offset="0.95" ></stop><stop id="SvgjsStop4855" stop-opacity="0.2" stop-color="#000000" offset="1" ></stop></radialGradient><radialGradient id="SvgjsRadialGradient4859" cx="125.875" cy="85.349" r="10.629" gradientUnits="userSpaceOnUse" class="svga-on-canvas-eyesfront-gradient-right-0"><stop id="SvgjsStop4860" stop-opacity="1" stop-color="#ffffff" offset="0" ></stop><stop id="SvgjsStop4861" stop-opacity="1" stop-color="#fdfefe" offset="0.544" ></stop><stop id="SvgjsStop4862" stop-opacity="1" stop-color="#f6f8f9" offset="0.74" ></stop><stop id="SvgjsStop4863" stop-opacity="1" stop-color="#eaeff2" offset="0.879" ></stop><stop id="SvgjsStop4864" stop-opacity="1" stop-color="#d9e3e8" offset="0.992" ></stop><stop id="SvgjsStop4865" stop-opacity="1" stop-color="#d8e2e7" offset="1" ></stop></radialGradient><radialGradient id="SvgjsRadialGradient4869" cx="123.315" cy="83.955" fx="135.422" fy="83.989" r="17.219" gradientTransform="matrix(-0.9998 0.0206 -0.0166 -0.7916 248.0017 147.8663)" gradientUnits="userSpaceOnUse" class="svga-on-canvas-eyesfront-gradient-right-3"><stop id="SvgjsStop4870" stop-opacity="1" stop-color="#cb8b6a" offset="0" ></stop><stop id="SvgjsStop4871" stop-opacity="0.3" stop-color="#cb8b6a" offset="0.7" ></stop><stop id="SvgjsStop4872" stop-opacity="0" stop-color="#daa488" offset="1" ></stop></radialGradient><radialGradient id="SvgjsRadialGradient4874" cx="122.617" cy="104.865" r="27.498" gradientTransform="matrix(0.9336 -0.3584 0.3046 0.7935 -23.799 65.5921)" gradientUnits="userSpaceOnUse" class="svga-on-canvas-eyesfront-gradient-right-4"><stop id="SvgjsStop4875" stop-opacity="0" stop-color="#000000" offset="0.95" ></stop><stop id="SvgjsStop4876" stop-opacity="0.2" stop-color="#000000" offset="1" ></stop></radialGradient><radialGradient id="SvgjsRadialGradient4881" cx="-568.659" cy="-521.042" r="59.751" gradientTransform="matrix(0.096 -0.0248 0.0245 0.0961 141.2814 119.9893)" gradientUnits="userSpaceOnUse" class="svga-on-canvas-eyesiris-gradient-left-1"><stop id="SvgjsStop4882" stop-opacity="1" stop-color="#ffffff" offset="0" ></stop><stop id="SvgjsStop4883" stop-opacity="0" stop-color="#ffffff" offset="1" ></stop></radialGradient><radialGradient id="SvgjsRadialGradient4885" cx="-582.838" cy="-519.099" r="59.745" gradientTransform="matrix(0.0991 8.856319e-004 -0.0011 0.0991 131.1134 135.9855)" gradientUnits="userSpaceOnUse" class="svga-on-canvas-eyesiris-gradient-left-2"><stop id="SvgjsStop4886" stop-opacity="1" stop-color="#ffffff" offset="0" ></stop><stop id="SvgjsStop4887" stop-opacity="0" stop-color="#ffffff" offset="1" ></stop></radialGradient><linearGradient id="SvgjsLinearGradient4891" x1="122.67" y1="88.268" x2="123.606" y2="87.152" gradientTransform="matrix(1 0 0 1 -52 0)" gradientUnits="userSpaceOnUse" class="svga-on-canvas-eyesiris-gradient-left-5"><stop id="SvgjsStop4892" stop-opacity="1" stop-color="#ffffff" offset="0" ></stop><stop id="SvgjsStop4893" stop-opacity="0" stop-color="#ffffff" offset="1" ></stop></linearGradient><linearGradient id="SvgjsLinearGradient4895" x1="127.212" y1="82.296" x2="126.463" y2="83.189" gradientTransform="matrix(1 0 0 1 -52 0)" gradientUnits="userSpaceOnUse" class="svga-on-canvas-eyesiris-gradient-left-6"><stop id="SvgjsStop4896" stop-opacity="1" stop-color="#ffffff" offset="0" ></stop><stop id="SvgjsStop4897" stop-opacity="0" stop-color="#ffffff" offset="1" ></stop></linearGradient><linearGradient id="SvgjsLinearGradient4899" x1="129.636" y1="79.822" x2="127.91" y2="81.879" gradientTransform="matrix(1 0 0 1 -52 0)" gradientUnits="userSpaceOnUse" class="svga-on-canvas-eyesiris-gradient-left-7"><stop id="SvgjsStop4900" stop-opacity="1" stop-color="#ffffff" offset="0" ></stop><stop id="SvgjsStop4901" stop-opacity="0" stop-color="#ffffff" offset="1" ></stop></linearGradient><radialGradient id="SvgjsRadialGradient4904" cx="-568.654" cy="-521.042" r="59.752" gradientTransform="matrix(0.096 -0.0248 0.0245 0.0961 193.2804 119.9894)" gradientUnits="userSpaceOnUse" class="svga-on-canvas-eyesiris-gradient-right-1"><stop id="SvgjsStop4905" stop-opacity="1" stop-color="#ffffff" offset="0" ></stop><stop id="SvgjsStop4906" stop-opacity="0" stop-color="#ffffff" offset="1" ></stop></radialGradient><radialGradient id="SvgjsRadialGradient4908" cx="-582.833" cy="-519.102" r="59.747" gradientTransform="matrix(0.0991 8.856319e-004 -0.0011 0.0991 183.1126 135.9856)" gradientUnits="userSpaceOnUse" class="svga-on-canvas-eyesiris-gradient-right-2"><stop id="SvgjsStop4909" stop-opacity="1" stop-color="#ffffff" offset="0" ></stop><stop id="SvgjsStop4910" stop-opacity="0" stop-color="#ffffff" offset="1" ></stop></radialGradient><linearGradient id="SvgjsLinearGradient4914" x1="122.67" y1="88.268" x2="123.606" y2="87.152" gradientUnits="userSpaceOnUse" class="svga-on-canvas-eyesiris-gradient-right-5"><stop id="SvgjsStop4915" stop-opacity="1" stop-color="#ffffff" offset="0" ></stop><stop id="SvgjsStop4916" stop-opacity="0" stop-color="#ffffff" offset="1" ></stop></linearGradient><linearGradient id="SvgjsLinearGradient4918" x1="127.212" y1="82.296" x2="126.463" y2="83.189" gradientUnits="userSpaceOnUse" class="svga-on-canvas-eyesiris-gradient-right-6"><stop id="SvgjsStop4919" stop-opacity="1" stop-color="#ffffff" offset="0" ></stop><stop id="SvgjsStop4920" stop-opacity="0" stop-color="#ffffff" offset="1" ></stop></linearGradient><linearGradient id="SvgjsLinearGradient4922" x1="129.636" y1="79.822" x2="127.91" y2="81.879" gradientUnits="userSpaceOnUse" class="svga-on-canvas-eyesiris-gradient-right-7"><stop id="SvgjsStop4923" stop-opacity="1" stop-color="#ffffff" offset="0" ></stop><stop id="SvgjsStop4924" stop-opacity="0" stop-color="#ffffff" offset="1" ></stop></linearGradient><linearGradient id="SvgjsLinearGradient5142" x1="100" y1="172" x2="100" y2="130" gradientUnits="userSpaceOnUse" class="svga-on-canvas-chinshadow-gradient-single-0"><stop id="SvgjsStop5143" stop-opacity="0.8" stop-color="#cb8b6a" offset="0" ></stop><stop id="SvgjsStop5144" stop-opacity="1" stop-color="#ac5f38" offset="0.7" ></stop></linearGradient></defs></svg>